# xmcd
#
# Track frame offsets:
#	150
#	21496
#	45738
#	71057
#	95744
#	117116
#	139397
#	178828
#	201235
#	227213
#	248820
#	268662
#	293758
#	321501
#
# Disc length: 4642 seconds
#
# Revision: 1
# Processed by: cddbd v1.5.2PL0 Copyright (c) Steve Scherf et al.
# Submitted via: audiograbber 1.81.02
#
DISCID=e112200e
DTITLE=Judy Bailey - Surrounded (live)
DYEAR=2006
DGENRE=Rock
TTITLE0=Inspired To Serve
TTITLE1=Great And Mighty
TTITLE2=One Day
TTITLE3=Get Up
TTITLE4=Riding Round The Sun
TTITLE5=The Greatest Thing
TTITLE6=Medley
TTITLE7=Jesus In My House
TTITLE8=My God Knows
TTITLE9=Holding On To You
TTITLE10=Never
TTITLE11=Two Sides
TTITLE12=At A Time Like This
TTITLE13=Surround
EXTD=www.gerth.de, Art.-Nr. 939640
EXTT0=
EXTT1=
EXTT2=
EXTT3=
EXTT4=
EXTT5=
EXTT6=
EXTT7=
EXTT8=
EXTT9=
EXTT10=
EXTT11=
EXTT12=
EXTT13=
PLAYORDER=
